<svg width="500" height="271" viewBox="0 0 500 271" fill="none" xmlns="http://www.w3.org/2000/svg">
<g clip-path="url(#clip0_1098_307)">
<path d="M288.176 113.119C253.715 164.178 222.89 222.035 167.404 253.334C149.542 263.451 129.624 270.09 109.074 270.565C59.4373 271.829 13.4366 236.104 0 188.838C17.5466 188.838 35.2514 188.68 52.798 188.68C56.7499 195.32 64.8119 206.701 79.197 213.973C105.754 227.251 133.26 216.344 139.741 213.657C163.611 204.014 178.628 185.203 203.604 153.271C208.188 147.264 212.931 140.941 212.931 140.941C216.25 136.515 218.78 132.721 220.993 129.717C230.161 116.281 230.952 112.803 243.914 94.624C246.285 91.3043 248.656 87.9847 251.028 84.6651C275.53 50.6783 292.76 28.8636 322.004 14.3204C354.094 -1.48735 395.669 -5.59738 429.497 7.83924C469.333 23.647 492.57 62.3761 499.684 103.318C493.519 98.2598 485.457 95.0982 476.921 95.0982C466.488 95.0982 457.003 99.5244 450.364 106.638C450.364 106.48 450.364 106.48 450.364 106.322C448.151 92.8851 442.776 79.6066 432.343 70.7542C417.642 58.2661 397.724 51.943 378.438 52.2591C349.51 52.8914 323.743 67.9088 305.564 89.5655C299.241 97.1532 293.709 105.057 288.176 113.119Z" fill="url(#paint0_linear_1098_307)"/>
<path d="M446.885 198.8H499.999C495.099 209.075 481.504 234.841 451.628 252.862C422.067 270.725 393.929 270.725 383.97 270.567C373.063 270.409 356.148 268.986 336.863 261.715C331.488 259.66 310.622 251.44 289.914 231.68C271.577 214.291 261.618 195.954 256.401 183.94C263.357 174.298 270.47 164.181 277.584 153.589C284.855 142.524 291.811 131.775 298.134 121.342C346.19 121.183 394.245 121.183 442.301 121.025C441.352 124.187 440.878 127.665 440.878 131.142C440.878 145.211 448.782 157.225 460.48 163.232C407.682 163.706 354.884 164.023 301.928 164.497C306.196 173.349 314.732 187.418 329.908 199.906C338.128 206.704 361.365 225.673 394.245 223.302C422.383 221.247 440.878 204.649 446.885 198.8Z" fill="url(#paint1_linear_1098_307)"/>
<path d="M240.594 77.2313C239.171 79.2863 237.59 81.3414 236.167 83.3964C227.789 95.2522 220.043 107.108 212.772 118.806C193.645 94.4618 173.727 80.2348 161.08 72.489C148.75 64.9013 135.314 58.8943 121.245 55.1004C107.65 51.4647 90.7358 48.6193 76.825 51.4647C65.6015 53.6777 54.8522 61.2655 52.3229 72.489C50.9002 78.8121 52.481 85.6095 56.1168 90.826C65.1272 103.472 85.6773 104.737 99.5882 107.266C119.822 111.06 139.582 115.802 158.393 124.339C172.936 130.978 184.792 138.566 193.803 145.363C189.534 150.896 184.792 156.744 179.417 162.751C173.252 169.707 166.771 176.662 159.658 182.511C142.743 169.549 130.73 159.906 108.441 156.428C89.9454 153.583 70.9761 153.583 53.1133 147.892C29.5597 140.462 8.85153 121.967 2.37034 98.0976C-4.26892 73.4375 5.37382 45.9319 23.7108 28.2272C42.206 10.6806 68.1307 2.14438 93.7393 1.82822C122.035 1.67014 149.225 10.6806 174.043 23.4849C204.71 39.4507 226.367 60.1589 240.594 77.2313Z" fill="url(#paint2_linear_1098_307)"/>
<path d="M499.525 131.051C499.525 132.609 499.391 134.037 499.122 135.464C496.971 145.589 487.695 153.117 476.671 153.117C464.034 153.117 453.683 143.252 453.683 130.921C453.683 118.72 463.9 108.855 476.671 108.855C487.695 108.855 496.971 116.384 499.122 126.508C499.391 127.936 499.525 129.494 499.525 131.051Z" fill="url(#paint3_linear_1098_307)"/>
</g>
<defs>
<linearGradient id="paint0_linear_1098_307" x1="462.871" y1="154.226" x2="42.0979" y2="-50.6756" gradientUnits="userSpaceOnUse">
<stop stop-color="#0059BF"/>
<stop offset="0.472327" stop-color="#0077FF"/>
<stop offset="1" stop-color="#0091FF"/>
</linearGradient>
<linearGradient id="paint1_linear_1098_307" x1="256.126" y1="141.556" x2="470.316" y2="233.632" gradientUnits="userSpaceOnUse">
<stop stop-color="#0059BF"/>
<stop offset="0.472327" stop-color="#0077FF"/>
<stop offset="1" stop-color="#0091FF"/>
</linearGradient>
<linearGradient id="paint2_linear_1098_307" x1="222.889" y1="104.876" x2="-0.00119659" y2="26.6277" gradientUnits="userSpaceOnUse">
<stop stop-color="#0059BF"/>
<stop offset="0.472327" stop-color="#0077FF"/>
<stop offset="1" stop-color="#0091FF"/>
</linearGradient>
<linearGradient id="paint3_linear_1098_307" x1="464.874" y1="149.692" x2="503.64" y2="143.001" gradientUnits="userSpaceOnUse">
<stop stop-color="#44AB00"/>
<stop offset="1" stop-color="#A0F36A"/>
</linearGradient>
<clipPath id="clip0_1098_307">
<rect width="500" height="271" fill="white"/>
</clipPath>
</defs>
</svg>
